<svg xmlns="http://www.w3.org/2000/svg" width="60" height="60" viewBox="0 0 60 60">
  <g id="customer-service-minded-attitude-icon" transform="translate(-4 -4)">
    <path id="Path_1" data-name="Path 1" d="M62.929,60H59.521c-.814-3.943-1.3-8.571-6.643-10.961,2.829-2.154,2.55-4.886,2.55-7.254a6.429,6.429,0,1,0-12.857,0c0,2.55-.257,5.111,2.539,7.254-2.025.889-.343.964-2.936-1.146a13.136,13.136,0,0,0-3.836-2.143c3.407-2.432,3.214-5.689,3.214-8.25a7.5,7.5,0,0,0-15,0c0,2.379-.364,5.743,3.214,8.261a12.954,12.954,0,0,0-5.614,3.9,8.742,8.742,0,0,0-1.168-.621c2.732-2.164,2.443-4.9,2.443-7.254a6.429,6.429,0,0,0-12.857,0c0,2.55-.257,5.121,2.55,7.264C9.754,51.429,9.261,56.207,8.479,60H5.071a1.071,1.071,0,0,0,0,2.143H62.929a1.071,1.071,0,1,0,0-2.143ZM44.714,43.929V41.786a4.286,4.286,0,0,1,8.571,0v2.143a4.286,4.286,0,1,1-8.571,0ZM28.643,39.643V37.5a5.357,5.357,0,1,1,10.714,0v2.143a5.357,5.357,0,1,1-10.714,0ZM14.714,43.929V41.786a4.286,4.286,0,0,1,8.571,0v2.143a4.286,4.286,0,0,1-8.571,0ZM11.307,56.9a7.8,7.8,0,0,1,11.5-5.475c-1.468,2.464-1.714,4.789-2.529,8.571H15.014l.771-2.957a1.1,1.1,0,1,0-2.143-.514L12.807,60H10.664ZM42.464,60l-1.071-4.521A1.072,1.072,0,0,0,39.314,56l.943,4H27.807l.836-4.071A1.093,1.093,0,1,0,26.5,55.5L25.621,60h-3.15A55.329,55.329,0,0,1,23.7,54.546a10.875,10.875,0,0,1,19.157-2.829C44.521,54.032,44.682,56,45.529,60Zm12.729,0-.836-3.471a1.071,1.071,0,0,0-2.079.514L52.986,60H47.725c-.911-4.286-1.168-6.321-2.529-8.571a7.779,7.779,0,0,1,11.5,5.507L57.325,60Z" transform="translate(0 1.857)" fill="#d82602"/>
    <path id="Path_2" data-name="Path 2" d="M56.5,4h-45A7.5,7.5,0,0,0,4,11.5v6.429a7.5,7.5,0,0,0,7.5,7.5h3.621l2.925,5.839a1.071,1.071,0,0,0,1.907,0l2.925-5.839h8.314l1.854,3.7a1.071,1.071,0,0,0,1.907,0l1.854-3.7h8.314l2.925,5.839a1.071,1.071,0,0,0,1.907,0l2.925-5.839H56.5a7.5,7.5,0,0,0,7.5-7.5V11.5A7.5,7.5,0,0,0,56.5,4Zm5.357,13.929A5.357,5.357,0,0,1,56.5,23.286H52.214c-.879,0-.836.343-3.214,5.1-2.432-4.854-2.346-5.1-3.214-5.1-10.714,0-10.2-.2-10.6.589L34,26.243l-1.189-2.368c-.4-.8-.064-.589-10.6-.589-.879,0-.836.343-3.214,5.1-2.432-4.854-2.346-5.1-3.214-5.1H11.5a5.357,5.357,0,0,1-5.357-5.357V11.5A5.357,5.357,0,0,1,11.5,6.143h45A5.357,5.357,0,0,1,61.857,11.5Z" transform="translate(0)" fill="#d82602"/>
    <path id="Path_3" data-name="Path 3" d="M22.78,11.87,20.4,11.41,19.223,9.267a1.071,1.071,0,0,0-1.875,0L16.169,11.41c-2.529.493-2.936.429-3.214,1.179s.257,1.071,1.886,2.839c-.321,2.561-.514,2.936.139,3.4s1.071.086,3.279-.911c2.4,1.071,2.325,1.071,2.646,1.071a1.071,1.071,0,0,0,1.071-1.2l-.268-2.336,1.65-1.779a1.071,1.071,0,0,0-.579-1.8ZM19.64,16.156c-1.521-.707-1.221-.7-2.7,0,.193-1.629.3-1.339-.836-2.571,1.639-.321,1.393-.161,2.143-1.6.793,1.436.536,1.275,2.143,1.6-1.029,1.211-.954.921-.75,2.593Z" transform="translate(0.635 0.286)"/>
    <path id="Path_4" data-name="Path 4" d="M34.654,10.006a3.214,3.214,0,0,0-2.282.943,3.214,3.214,0,1,0-4.554,4.532l3.825,3.825a1.071,1.071,0,0,0,1.511,0l3.793-3.782a3.214,3.214,0,0,0-2.293-5.518Zm.771,4-3.054,3.032L29.329,13.97a1.071,1.071,0,0,1,.739-1.821c.525,0,.664.214,1.543,1.071a1.071,1.071,0,0,0,1.511,0l.761-.761A1.091,1.091,0,0,1,35.425,14Z" transform="translate(1.629 -0.92)"/>
    <path id="Path_5" data-name="Path 5" d="M50.78,12.87,48.4,12.41l-1.179-2.143a1.071,1.071,0,0,0-1.875,0L44.169,12.41c-2.529.493-2.936.429-3.214,1.179s.257,1.071,1.886,2.839c-.321,2.561-.514,2.936.139,3.4s1.125.086,3.279-.911c2.4,1.071,2.325,1.071,2.646,1.071a1.071,1.071,0,0,0,1.071-1.2l-.268-2.336,1.65-1.779a1.071,1.071,0,0,0-.579-1.8ZM47.64,17.156c-1.521-.707-1.221-.7-2.7,0,.193-1.629.3-1.339-.836-2.571,1.639-.321,1.393-.161,2.143-1.6.793,1.436.536,1.275,2.143,1.6-1.029,1.211-.954.921-.75,2.593Z" transform="translate(2.635 -0.714)"/>
  </g>
</svg>
