<svg xmlns="http://www.w3.org/2000/svg" width="80" height="80" viewBox="0 0 80 80">
  <g id="happy-clients-icon" transform="translate(-1 -1)">
    <path id="Path_50" data-name="Path 50" d="M71.323,47.581h-.645V45a3.871,3.871,0,0,0-7.742,0h-27.1V42.419h-.034a12.91,12.91,0,0,0,4.934-7.742H41a5.166,5.166,0,0,0,5.161-5.161,5.112,5.112,0,0,0-1.29-3.378V21.774a16.774,16.774,0,0,0-33.548,0v4.364a5.112,5.112,0,0,0-1.29,3.378,5.166,5.166,0,0,0,5.161,5.161h.261a12.91,12.91,0,0,0,4.934,7.742h-.034V45H13.9A12.918,12.918,0,0,0,1,57.9V78.548a1.289,1.289,0,0,0,1.29,1.29H46.161a1.289,1.289,0,0,0,1.29-1.29V59.194H71.323a5.806,5.806,0,0,0,0-11.613Zm-50.283,0,5.022,6.026-4.954,2.476-2.835-8.5Zm6.886,14.194h.342L30.48,77.258H25.715Zm.663-2.581H27.6l-1.388-2.778,1.881-.941,1.881.941Zm1.542-5.587,5.022-6.026H37.92l-2.835,8.5ZM41,32.1V26.935A2.581,2.581,0,1,1,41,32.1ZM12.613,29.516a2.583,2.583,0,0,1,2.581-2.581V32.1A2.583,2.583,0,0,1,12.613,29.516Zm2.581-5.161a5.083,5.083,0,0,0-1.29.183V21.774a14.194,14.194,0,0,1,28.387,0v2.764A5.083,5.083,0,0,0,41,24.355a1.289,1.289,0,0,0-1.29-1.29,6.482,6.482,0,0,1-5.161-2.582L33,18.418a1.34,1.34,0,0,0-2.065,0l-1.548,2.066a6.484,6.484,0,0,1-5.161,2.581H16.484A1.289,1.289,0,0,0,15.194,24.355ZM17.774,32.1V25.645h6.452a9.078,9.078,0,0,0,7.226-3.613l.516-.689.516.688a9.08,9.08,0,0,0,5.935,3.52V32.1a10.323,10.323,0,1,1-20.645,0ZM28.1,45a12.812,12.812,0,0,0,5.161-1.085v1.908L28.1,52.017l-5.161-6.194V43.915A12.812,12.812,0,0,0,28.1,45ZM3.581,57.9A10.335,10.335,0,0,1,13.9,47.581h1.652l3.577,10.73a1.291,1.291,0,0,0,.729.783,1.266,1.266,0,0,0,.494.1,1.292,1.292,0,0,0,.577-.135l2.974-1.488,1.565,3.13L23.106,77.258H11.323V59.194H8.742V77.258H3.581Zm59.355-1.29H47.452V52.742H44.871V77.258H33.088L30.723,60.7l1.565-3.13,2.974,1.488a1.29,1.29,0,0,0,1.8-.746l3.577-10.732h22.3v9.032Zm8.387,0H65.516V45A1.29,1.29,0,0,1,68.1,45v3.871a1.289,1.289,0,0,0,1.29,1.29h1.935a3.226,3.226,0,0,1,0,6.452Z" transform="translate(0 1.161)" fill="#d82602"/>
    <path id="Path_51" data-name="Path 51" d="M53.774,34.548A16.774,16.774,0,1,0,37,17.774,16.794,16.794,0,0,0,53.774,34.548Zm0-30.968A14.194,14.194,0,1,1,39.581,17.774,14.21,14.21,0,0,1,53.774,3.581Z" transform="translate(10.452)" fill="#d82602"/>
    <path id="Path_52" data-name="Path 52" d="M49.367,21.818a1.287,1.287,0,0,0,.912-.378L60.6,11.118,58.777,9.293l-9.41,9.41-4.249-4.249-1.825,1.825,5.161,5.161a1.287,1.287,0,0,0,.912.378Z" transform="translate(12.279 2.408)"/>
  </g>
</svg>
