<svg id="proactive-communication-icon" xmlns="http://www.w3.org/2000/svg" width="60" height="60" viewBox="0 0 60 60">
  <g id="Group_56" data-name="Group 56" transform="translate(5)">
    <g id="Group_55" data-name="Group 55">
      <path id="Path_6" data-name="Path 6" d="M55,0A15,15,0,0,0,40,15V26a7.008,7.008,0,0,0,7,7h1V31H47a5.006,5.006,0,0,1-5-5V15a13,13,0,1,1,26,0V26a5.006,5.006,0,0,1-5,5H62v2h1a7.008,7.008,0,0,0,7-7V15A15,15,0,0,0,55,0Z" transform="translate(-40)" fill="#d82602"/>
    </g>
  </g>
  <g id="Group_58" data-name="Group 58" transform="translate(5 44.906)">
    <g id="Group_57" data-name="Group 57">
      <path id="Path_7" data-name="Path 7" d="M43.243,361.471l.731-1.151-1.689-1.072-.731,1.152a9.968,9.968,0,0,0,.413,11.283v2.659h2v-3a1,1,0,0,0-.219-.625A7.967,7.967,0,0,1,43.243,361.471Z" transform="translate(-40.003 -359.248)" fill="#d82602"/>
    </g>
  </g>
  <g id="Group_60" data-name="Group 60" transform="translate(37)">
    <g id="Group_59" data-name="Group 59">
      <path id="Path_8" data-name="Path 8" d="M314,0H301a5.006,5.006,0,0,0-5,5V15a5.006,5.006,0,0,0,5,5h2v4a1,1,0,0,0,.617.924A.987.987,0,0,0,304,25a1,1,0,0,0,.707-.293L309.414,20H314a5.006,5.006,0,0,0,5-5V5A5.006,5.006,0,0,0,314,0Zm3,15a3,3,0,0,1-3,3h-5a1,1,0,0,0-.707.293L305,21.586V19a1,1,0,0,0-1-1h-3a3,3,0,0,1-3-3V5a3,3,0,0,1,3-3h13a3,3,0,0,1,3,3Z" transform="translate(-296)" fill="#d82602"/>
    </g>
  </g>
  <g id="Group_66" data-name="Group 66" transform="translate(41.943 6.872)">
    <g id="Group_65" data-name="Group 65" transform="translate(0 0)">
      <rect id="Rectangle_665" data-name="Rectangle 665" width="12.905" height="2.42"/>
    </g>
  </g>
  <g id="Group_68" data-name="Group 68" transform="translate(41.943 10.905)">
    <g id="Group_67" data-name="Group 67" transform="translate(0 0)">
      <rect id="Rectangle_666" data-name="Rectangle 666" width="7.259" height="2.42"/>
    </g>
  </g>
  <g id="Group_70" data-name="Group 70" transform="translate(31.028 44.906)">
    <g id="Group_69" data-name="Group 69">
      <path id="Path_9" data-name="Path 9" d="M250.644,360.4l-.731-1.152-1.689,1.072.731,1.152a7.965,7.965,0,0,1-.5,9.245,1,1,0,0,0-.219.625v3h2v-2.659A9.968,9.968,0,0,0,250.644,360.4Z" transform="translate(-248.224 -359.248)" fill="#d82602"/>
    </g>
  </g>
  <g id="Group_72" data-name="Group 72" transform="translate(0 8.731)">
    <g id="Group_71" data-name="Group 71">
      <path id="Path_10" data-name="Path 10" d="M59,95.116H50a7,7,0,0,0-6.986,6.715L40,107.257v-4.141a7.008,7.008,0,0,0-7-7H29.345l-.027-.021-.018.021H27a2,2,0,0,1-2-2V91.763a10,10,0,0,0,5-8.647v-8a10.021,10.021,0,0,0-1.2-4.746,1,1,0,0,0-1.3-.43L10.574,77.9a1,1,0,0,0-.574.9v4.307a10,10,0,0,0,5,8.647v2.353a2,2,0,0,1-2,2H7a7.008,7.008,0,0,0-7,7v18H2v-18a5.006,5.006,0,0,1,5-5h3.182l9,12.582a1,1,0,0,0,.8.418H20a1,1,0,0,0,.8-.4l9.5-12.6H33a5.006,5.006,0,0,1,5,5v8a1,1,0,0,0,1.874.485l4.714-8.485h5.733l-9.75,18h2.275l9.754-18H53a7.008,7.008,0,0,0,7-7A1,1,0,0,0,59,95.116Zm-47-12V79.444l15.441-7.266A8,8,0,0,1,28,75.116v8a8,8,0,1,1-16,0Zm8.021,25.312-3.086-4.312h6.336Zm4.763-6.312H15.5l-2.863-4H13a4,4,0,0,0,4-4V92.655a9.993,9.993,0,0,0,6,0v1.461a4,4,0,0,0,4,4h.8Zm28.216-1H45.1a5.008,5.008,0,0,1,4.9-4h7.9A5.008,5.008,0,0,1,53,101.116Z" transform="translate(0 -69.847)" fill="#d82602"/>
    </g>
  </g>
</svg>
