<svg xmlns="http://www.w3.org/2000/svg" width="80" height="80" viewBox="0 0 80 80">
  <g id="projects-completed-icon" transform="translate(0 -0.181)">
    <path id="Path_204" data-name="Path 204" d="M15.181,9.09,44.8,15.018a5,5,0,0,1,4,4.946V54.517A5.056,5.056,0,0,1,43.758,59.6H13.5A1.671,1.671,0,0,0,15.181,57.9V56.211H43.758a1.692,1.692,0,0,0,1.681-1.694V19.964a1.7,1.7,0,0,0-1.311-1.66L15.181,12.545Z" transform="translate(31.199 20.583)" fill="#d82602"/>
    <path id="Path_205" data-name="Path 205" d="M25.405,14a1.694,1.694,0,0,1,0,3.388H18.681a1.694,1.694,0,0,1,0-3.388Z" transform="translate(39.597 32.577)"/>
    <path id="Path_206" data-name="Path 206" d="M25.405,17a1.694,1.694,0,0,1,0,3.388H18.681a1.694,1.694,0,0,1,0-3.388Z" transform="translate(39.597 39.649)"/>
    <path id="Path_207" data-name="Path 207" d="M25.405,20a1.694,1.694,0,0,1,0,3.388H18.681a1.694,1.694,0,0,1,0-3.388Z" transform="translate(39.597 46.63)"/>
    <path id="Path_208" data-name="Path 208" d="M16.362,58.119a1.681,1.681,0,1,1-3.362,0V10.693a1.807,1.807,0,0,1,.605-1.321,1.757,1.757,0,0,1,1.412-.339l1.345.271V58.119Z" transform="translate(30.707 20.368)" fill="#d82602"/>
    <path id="Path_209" data-name="Path 209" d="M21.664,23v1.694A1.7,1.7,0,0,0,23.4,26.388H9.5a1.7,1.7,0,0,0,1.738-1.694V23Z" transform="translate(22.161 53.793)" fill="#d82602"/>
    <path id="Path_210" data-name="Path 210" d="M16.405,5a1.694,1.694,0,0,1,0,3.388H9.681A1.694,1.694,0,0,1,9.681,5Z" transform="translate(18.634 11.361)"/>
    <path id="Path_211" data-name="Path 211" d="M18.086,9.694a1.671,1.671,0,0,1-1.681,1.694H9.681A1.694,1.694,0,0,1,9.681,8h6.724A1.671,1.671,0,0,1,18.086,9.694Z" transform="translate(18.634 18.433)"/>
    <path id="Path_212" data-name="Path 212" d="M16.405,11a1.694,1.694,0,0,1,0,3.388H9.681a1.694,1.694,0,0,1,0-3.388Z" transform="translate(18.634 25.505)"/>
    <path id="Path_213" data-name="Path 213" d="M16.405,14a1.694,1.694,0,0,1,0,3.388H9.681a1.694,1.694,0,0,1,0-3.388Z" transform="translate(18.634 32.577)"/>
    <path id="Path_214" data-name="Path 214" d="M13.086,15.694a1.671,1.671,0,0,1-1.681,1.694H4.681a1.694,1.694,0,0,1,0-3.388h6.724A1.671,1.671,0,0,1,13.086,15.694Z" transform="translate(7.086 32.577)"/>
    <path id="Path_215" data-name="Path 215" d="M11.405,5a1.694,1.694,0,0,1,0,3.388H4.681A1.694,1.694,0,0,1,4.681,5Z" transform="translate(7.086 11.361)"/>
    <path id="Path_216" data-name="Path 216" d="M11.405,8a1.694,1.694,0,0,1,0,3.388H4.681A1.694,1.694,0,0,1,4.681,8Z" transform="translate(7.086 18.433)"/>
    <path id="Path_217" data-name="Path 217" d="M11.405,11a1.694,1.694,0,0,1,0,3.388H4.681a1.694,1.694,0,0,1,0-3.388Z" transform="translate(7.086 25.505)"/>
    <path id="Path_218" data-name="Path 218" d="M20.81,22.081a1.692,1.692,0,0,0-1.681-1.694H9.043a1.671,1.671,0,0,0-1.681,1.694V37.325H4V22.081A5.056,5.056,0,0,1,9.043,17H19.129a5.056,5.056,0,0,1,5.043,5.081V37.325H20.81Z" transform="translate(9.295 39.468)" fill="#d82602"/>
    <path id="Path_219" data-name="Path 219" d="M7.362,23h16.81v1.694a1.671,1.671,0,0,1-1.681,1.694H5.681A1.671,1.671,0,0,1,4,24.694V23Z" transform="translate(9.295 53.793)" fill="#d82602"/>
    <path id="Path_220" data-name="Path 220" d="M5.884.246,42.832,5.855a5.021,5.021,0,0,1,4.236,4.971V30.1l-1.345-.269a1.656,1.656,0,0,0-2.017,1.646V10.826a1.7,1.7,0,0,0-1.412-1.679L5.346,3.571a.932.932,0,0,0-.3-.034,1.587,1.587,0,0,0-1.076.4,1.605,1.605,0,0,0-.605,1.276V75.143a1.685,1.685,0,0,0,1.681,1.679h8.405V78.5a1.664,1.664,0,0,0,1.681,1.679H5.043A5.034,5.034,0,0,1,0,75.143V5.217A4.943,4.943,0,0,1,1.782,1.388,5.05,5.05,0,0,1,5.884.246Z" transform="translate(0 0)" fill="#d82602"/>
  </g>
</svg>
