<svg xmlns="http://www.w3.org/2000/svg" width="63.3" height="63.3" viewBox="0 0 63.3 63.3">
  <g id="attention-to-detail-icon" transform="translate(1.65 1.65)">
    <path id="zoom-lens" d="M29.316,48.345A17.991,17.991,0,1,1,47.3,30.364,17.942,17.942,0,0,1,29.316,48.345m18.923-3.309a24.073,24.073,0,1,0-4.251,4.249L60.182,65.479a3.005,3.005,0,1,0,4.251-4.249Z" transform="translate(-5.314 -6.362)" fill="#d82602" stroke="#e3e3e3" stroke-width="3.3"/>
    <path id="XMLID_927_" d="M197.992,112.355a12.576,12.576,0,0,0-22.308,0,.8.8,0,0,0,0,.737,12.576,12.576,0,0,0,22.308,0A.8.8,0,0,0,197.992,112.355Zm-11.154,5.912a10.955,10.955,0,0,1-9.541-5.543,10.982,10.982,0,0,1,19.082,0A10.955,10.955,0,0,1,186.838,118.267Z" transform="translate(-162.713 -88.849)" fill="#d82602" stroke="#d82602" stroke-width="0.5"/>
    <path id="XMLID_928_" d="M2.791,0A2.791,2.791,0,1,1,0,2.791,2.791,2.791,0,0,1,2.791,0Z" transform="translate(21.334 21.084)"/>
  </g>
</svg>
