<svg xmlns="http://www.w3.org/2000/svg" width="108.647" height="80" viewBox="0 0 108.647 80">
  <g id="years-combined-experience-icon" transform="translate(0 -67.5)">
    <path id="Path_223" data-name="Path 223" d="M98.78,171.3H9.867a5.432,5.432,0,1,1,0-10.865H98.78a5.432,5.432,0,0,1,0,10.865Zm2.971-14.854v-5.878A47.324,47.324,0,0,0,66.207,104.69l1.019,4.9a42.778,42.778,0,0,1,13.666,7.236l4.414,3.989a42.826,42.826,0,0,1,11.947,29.729v5.411H11.332v-5.39a42.826,42.826,0,0,1,11.947-29.729l4.414-4.011a42.722,42.722,0,0,1,13.666-7.215c.011-.049.021-.1.034-.155l.036-.172c.028-.123.055-.255.087-.4l.047-.219c.008-.038.017-.074.025-.115l.023-.117c.025-.119.053-.24.081-.367l.055-.255c.008-.042.017-.087.028-.129l.034-.155c.006-.036.015-.074.023-.11l.055-.259.013-.059c.07-.325.14-.654.212-.978l.042-.2c.008-.045.019-.089.03-.134l.028-.134c.019-.087.038-.176.057-.261l.059-.276c.013-.068.028-.134.042-.2l.051-.236.013-.059c.013-.068.028-.134.042-.2.008-.036.017-.072.023-.108s.015-.07.023-.1c.013-.064.025-.123.038-.18,0-.021.008-.042.013-.062a.433.433,0,0,0,.011-.051c.015-.062.028-.119.038-.174.006-.028.013-.055.017-.081s.011-.051.017-.074v0c.006-.036.015-.07.021-.1l-.259,1.18A47.385,47.385,0,0,0,6.9,150.568v5.9a9.862,9.862,0,0,0,2.971,19.268H98.78a9.874,9.874,0,0,0,2.971-19.289ZM42.71,103.34l-.013.059s0,0,0,0C42.7,103.376,42.706,103.357,42.71,103.34Z" transform="translate(0 -28.235)" fill="#d82602"/>
    <path id="Path_224" data-name="Path 224" d="M207.664,103.235a2.224,2.224,0,0,1-2.631-1.7l-6.005-27.862a2.2,2.2,0,0,0-2.143-1.74H187.7a2.2,2.2,0,0,0-2.143,1.74l-6.005,27.862a2.214,2.214,0,0,1-4.329-.934l4.138-19.225c.011-.049.021-.1.034-.155l.036-.172c.028-.123.055-.255.087-.4.015-.07.03-.142.047-.219.008-.038.017-.074.025-.115l.023-.117c.025-.119.053-.24.081-.367.017-.083.036-.168.055-.255.008-.042.017-.087.028-.129l.034-.155c.006-.036.015-.074.023-.11.019-.085.036-.172.055-.259l.013-.059c.07-.325.14-.654.212-.978l.042-.2c.008-.045.019-.089.03-.134l.028-.134c.019-.087.038-.176.057-.261l.059-.276c.013-.068.028-.134.042-.2l.051-.236.013-.059c.013-.068.028-.134.042-.2.008-.036.017-.072.023-.108s.015-.07.023-.1c.013-.064.025-.123.038-.18,0-.021.008-.042.013-.062a.435.435,0,0,0,.011-.051c.015-.062.028-.119.038-.174.006-.028.013-.055.017-.081a.753.753,0,0,1,.017-.074v0c.006-.036.015-.07.021-.1s.013-.062.019-.089c0,0,0,0,0,0,0-.019.006-.038.011-.055s.008-.034.011-.049,0-.019.006-.028v0a.027.027,0,0,0,0-.013.289.289,0,0,0,.008-.036q0-.019.006-.032a.008.008,0,0,0,0-.006s0-.006,0-.008a.051.051,0,0,1,0-.019.013.013,0,0,1,0-.008.092.092,0,0,1,0-.011v0l.469-2.15a6.691,6.691,0,0,1,6.493-5.241h9.188a6.673,6.673,0,0,1,6.493,5.241l.779,3.586.028.127,1.019,4.9,4.138,19.247A2.224,2.224,0,0,1,207.664,103.235Z" transform="translate(-137.998)"/>
    <path id="Path_225" data-name="Path 225" d="M114.114,166.9v23.7a2.207,2.207,0,0,1-4.414,0V170.911Z" transform="translate(-86.421 -78.307)" fill="#d82602"/>
    <path id="Path_226" data-name="Path 226" d="M385.614,170.889v19.692a2.207,2.207,0,1,1-4.414,0V166.9Z" transform="translate(-300.309 -78.307)" fill="#d82602"/>
  </g>
</svg>
